<svg width="13" height="13" viewBox="0 0 13 13" fill="none" xmlns="http://www.w3.org/2000/svg">
    <!-- Stem -->
    <path d="M6.5 1.8C6.5 1.8 6.7 1 7 0.5C7.2 0.1 7.7 0.1 7.8 0.4C7.9 0.6 7.5 0.9 7.1 1.2C6.8 1.5 6.5 1.8 6.5 1.8Z"
          fill="#5D4037"/>
    <!-- Leaf -->
    <path d="M7.1 1.1C7.5 0.8 8.3 0.7 9 1C9.5 1.2 9.5 1.7 9 1.8C8.5 1.9 7.8 1.7 7.3 1.3Z"
          fill="#4CAF50"/>
    <!-- Pear body -->
    <path d="M6.5 12.5C4.5 12.5 2.5 10.5 2.2 8.5C1.9 6.5 2.8 5.2 3.5 4.2C4.2 3.2 4.8 2.5 5.2 2
             C5.5 2.3 6 2.6 6.5 2.6C7 2.6 7.5 2.3 7.8 2
             C8.2 2.5 8.8 3.2 9.5 4.2C10.2 5.2 11.1 6.5 10.8 8.5C10.5 10.5 8.5 12.5 6.5 12.5Z"
          fill="url(#pearGrad13)"/>
    <!-- Highlight -->
    <path d="M4.8 9.5C4.5 8 5 6 5.7 4.5C5.7 4.5 5.5 6.5 5.2 8C5 9 4.9 9.3 4.8 9.5Z"
          fill="white" opacity="0.35"/>
    <defs>
        <linearGradient id="pearGrad13" x1="3" y1="2" x2="10" y2="12.5" gradientUnits="userSpaceOnUse">
            <stop offset="0" stop-color="#C8E06A"/>
            <stop offset="0.45" stop-color="#8BC34A"/>
            <stop offset="1" stop-color="#558B2F"/>
        </linearGradient>
    </defs>
</svg>